{
  "accessors": [
    {
      "bufferView": 0,
      "componentType": 5125,
      "count": 66540,
      "type": "SCALAR"
    },
    {
      "bufferView": 1,
      "componentType": 5126,
      "count": 12990,
      "max": [
        0.34617859040839677,
        0.3634514664254671,
        0.11169384388355749
      ],
      "min": [
        -0.3461785904083968,
        -0.3634514664254671,
        -0.11169384388355749
      ],
      "type": "VEC3"
    },
    {
      "bufferView": 2,
      "componentType": 5126,
      "count": 12990,
      "max": [
        0.9999999961841963,
        0.9999997941189283,
        0.999979541161831
      ],
      "min": [
        -0.9999999741662824,
        -0.9999996746673755,
        -1.0
      ],
      "type": "VEC3"
    },
    {
      "bufferView": 3,
      "componentType": 5126,
      "count": 12990,
      "max": [
        1.0,
        0.6322973367414596
      ],
      "min": [
        0.0,
        0.0
      ],
      "type": "VEC2"
    }
  ],
  "asset": {
    "generator": "Adobe Illustrator",
    "version": "2.0"
  },
  "bufferViews": [
    {
      "buffer": 0,
      "byteLength": 266160,
      "target": 34963
    },
    {
      "buffer": 0,
      "byteLength": 155880,
      "byteOffset": 266160,
      "target": 34962
    },
    {
      "buffer": 0,
      "byteLength": 155880,
      "byteOffset": 422040,
      "target": 34962
    },
    {
      "buffer": 0,
      "byteLength": 103920,
      "byteOffset": 577920,
      "target": 34962
    }
  ],
  "buffers": [
    {
      "byteLength": 681840,
      "uri": "data:application/octet-stream;base64,"
    }
  ],
  "materials": [
    {
      "doubleSided": true,
      "pbrMetallicRoughness": {
        "baseColorFactor": [
          0.90234375,
          0.9999999403953552,
          0.328125,
          1.0
        ],
        "metallicFactor": 0.10000000149011612,
        "roughnessFactor": 0.3400000035762787
      }
    }
  ],
  "meshes": [
    {
      "primitives": [
        {
          "attributes": {
            "NORMAL": 2,
            "POSITION": 1,
            "TEXCOORD_0": 3
          },
          "indices": 0,
          "material": 0,
          "mode": 4
        }
      ]
    }
  ],
  "nodes": [
    {
      "mesh": 0
    }
  ],
  "scenes": [
    {
      "nodes": [
        0
      ]
    }
  ]
}
